<?xml version="1.0" encoding="utf-8"?>
<!-- Generator: Adobe Illustrator 25.4.1, SVG Export Plug-In . SVG Version: 6.00 Build 0)  -->
<svg version="1.1" id="Camada_1" xmlns="http://www.w3.org/2000/svg" xmlns:xlink="http://www.w3.org/1999/xlink" x="0px" y="0px"
	 viewBox="0 0 1539.5 394.1" style="enable-background:new 0 0 1539.5 394.1;" xml:space="preserve">
<style type="text/css">
	.st0{fill:#CBBC94;}
	.st1{fill:#998A64;}
	.st2{display:none;fill:#F4F4EF;}
	.st3{fill:#9F906A;}
	.st4{fill:#9F916B;}
	.st5{fill:#9D8E67;}
	.st6{fill:#9F8F69;}
	.st7{fill:#9D8F68;}
	.st8{fill:#9E8C65;}
	.st9{fill:#A1906A;}
	.st10{fill:#9F8D67;}
	.st11{fill:#9C8C65;}
	.st12{fill:#A2926C;}
	.st13{fill:#A1946E;}
	.st14{fill:#B0A384;}
	.st15{fill:#A99673;}
	.st16{fill:#AA9A78;}
	.st17{fill:#AA9B7A;}
	.st18{fill:#A69672;}
	.st19{fill:#AC9D7C;}
	.st20{fill:#AC9F7E;}
	.st21{fill:#FBFDFC;}
	.st22{fill:#FEFFFD;}
	.st23{fill:#F5F6F3;}
	.st24{fill:#F4F4EF;}
	.st25{fill:#E6DFD5;}
	.st26{fill:#FFFFFF;}
</style>
<g>
	<path class="st0" d="M337,117.4c-5.9,3.8-12.6,5.4-19.2,6.7c-10.8,2.2-21.8,2.4-32.6,1.4c-12.4-1.1-24.6-3.5-36.5-6.7
		c-19.7-5.4-38.6-12.6-56.9-21.5c-14.1-6.8-28.1-14.1-42.1-21.1c-10-5.1-20-10-30.5-13.7c-9.1-3.2-18.3-4.3-27.6-3.8
		c-10.5,0.6-19.1,5.2-26.1,12.7c-7.2,7.8-12.2,16.8-14.1,27.3c-1.3,7.3-1.3,14.8-0.3,21.9c1.1,8.3,3.5,16.4,7.2,24
		c3.8,7.9,8.7,14.8,14.6,21.1c5.7,6.2,11.1,12.6,16.4,19.1c7.9,9.7,13.7,20.8,16.8,32.9c0,0.2,0.3,0.3,0.8,1
		c0.6-0.3,1.7-0.6,2.4-1.3c11-11.9,25.3-18.8,40-24.3c20-7.5,40.7-12.7,61.5-16.8c14.6-2.9,29.2-5.9,44-8.6
		c17.2-3.3,34.3-6.4,51.5-9.7c16.4-3.2,32.7-6.8,48.6-12.2c22.2-7.6,42.9-18.4,61.5-32.9c12.9-10,23.8-21.9,33.5-35.1
		c3.5-4.8,6.5-9.7,9.7-14.6c1.1-1.6,2.2-3,4.3-4.1c-1.1,4.9-2.1,9.9-3.5,14.6c-5.2,18.4-12.6,35.9-23.8,51.5
		c-8.6,11.8-18.6,22.2-29.7,31.5c-8.6,7.2-17.5,13.8-27,19.7c-13.3,8.1-27.5,14.3-42.1,19.5c-20.5,7.5-41.8,12.6-63.1,16.8
		c-13.8,2.9-27.8,5.7-41.8,8.4c-12.2,2.4-24.5,4.4-36.5,6.8c-22.7,4.4-45.1,9.9-66.7,18.3c-18.1,7-35,16.2-48.9,30
		c-0.8,0.6-1.6,1.4-2.2,2.1c-0.2,0.2-0.5,0.2-0.8,0.2c-1.4-0.5-1-1.7-0.8-2.5c2.9-11.8,0.6-23.2-2.5-34.5
		c-4.1-15.1-10.6-29.1-18.6-42.4c-10.2-17.3-21-34.2-31.6-51.2c-6.4-10.2-11.3-21-13.8-32.7C5.4,91.4,9.7,69.3,24,49.4
		c6.5-9.1,14.8-16.7,24.9-22.1c8.9-4.8,18.1-9.2,28.3-11.1c9.7-1.7,19.4-3,29.4-1.7c11.3,1.4,21.8,4.4,32.1,8.7
		c8.9,3.8,16.8,9.4,24.6,15.1c24.2,17.6,48,35.9,73.1,52.1c19.2,12.4,40.2,20,62.8,23.8C311.6,116.3,324.2,117.3,337,117.4z"/>
	<path class="st1" d="M40.8,378.7c6.2-22.1,16.8-41.8,31.3-59.6c18.8-23,42.4-38.9,70.6-48.5c31.8-11,63.7-20.5,96.5-27.6
		c21.6-4.6,43.2-8.7,64.8-13.2c15.7-3.2,31.1-7.2,45.9-13.5c17.2-7.5,32.4-18,45.8-31c3.5-3.3,7-6.7,10.8-10.3
		c-0.3,1.4-0.5,2.7-1,3.8c-4.3,11.1-8.6,22.2-14.5,32.6c-12.1,21-29.1,37-50.1,48.8c-14.3,7.9-29.4,13.7-45.3,17.8
		c-26.1,6.8-52.6,11.6-79.1,15.6c-21.3,3.2-42.7,6.4-63.6,11.8c-22.2,5.9-43.2,14.8-62.5,27.5c-6.8,4.4-13,9.7-19.1,15.1
		c-10.8,9.7-20.3,20.5-28.8,32.4C42.1,379.9,41.5,379.3,40.8,378.7z"/>
	<path class="st1" d="M404.1,110c-10,9.4-35.9,23.2-46.4,24.5c0.2-2.5,0.3-5.1,0.6-7.5c1-12.4,2.1-24.8,0.6-37.2
		c-0.5-3.5-1-7-1.7-10.5c-5.2-20-18.3-31.6-38.5-35.4c-8.3-1.6-16.7-1.9-25.1-1.3c-2.5,0.2-5.1,0.5-7.6,0.5
		c-8.9,0.2-17.6,1.4-26.4,2.9c-4.9,0.8-9.9,1.3-16,2.2c1.7-1.4,2.5-2.1,3.3-2.5c18.8-9.9,37.8-18.6,57.8-25.1
		c7.5-2.4,15.1-4.4,22.9-5.4c16.5-1.9,31.8,1.9,45.9,10.5c14.8,8.9,22.6,22.9,26.1,39.4c1.1,5.2,1.7,10.5,2.4,15.7
		c0.8,7,1.6,14.1,2.2,21.1C404.2,104.5,404.1,107.3,404.1,110z"/>
</g>
<path class="st0" d="M397.7,297.4c0.6,0.6,1.3,1.1,1.9,1.7c-0.2,2.4-1.3,4.1-3.8,5.2C395.2,301.5,396.1,299.4,397.7,297.4z"/>
<path class="st2" d="M429.8,479.5c1.3,0.6,2.4,0.8,2.7,1.6c0.6,1,0.8,2.4,0.6,3.5c-0.2,2.1-1.7,2.9-3.8,2.4
	C428.4,484.6,428.5,482.2,429.8,479.5z"/>
<g>
	<path class="st3" d="M930.1,149.4c7.9-0.6,15.6-0.6,23,0c3,0.3,5.9,1.3,8.4,3.3c5.9,4.9,6.5,12.4,1.1,18c-0.8,1-1.9,1.6-3,2.7
		c1.7,1.4,3.3,2.5,4.6,4c6,6.7,3.8,16.7-4.6,20.2c-1.6,0.6-3.3,1.3-5.1,1.4c-8.1,0.6-16.2,0.5-24.2,0.2
		C929.4,193.2,929.1,158.8,930.1,149.4z M940.4,191c4,0,7.5,0.3,11,0c3.8-0.5,5.9-3,5.7-6.7c0-3.5-2.2-6.2-5.9-6.5
		c-3.5-0.3-7-0.5-10.6,0.3C939.6,182.1,939.9,186.1,940.4,191z M940.4,169.7c3.5,0,6.5,0.2,9.5,0c3.7-0.3,5.6-2.5,5.9-5.9
		c0.2-3.5-1.3-5.7-4.8-6.5s-6.8-1.1-10.5,0.2C939.6,161.3,939.8,165.1,940.4,169.7z"/>
	<path class="st4" d="M484.8,149.5c1.4-0.2,2.7-0.5,3.8-0.5c4.3,0,8.6-0.2,12.9,0c3.3,0.2,6.7,0.6,9.7,1.6
		c10.3,3.2,16.7,11.8,17,22.7c0.3,13.8-7.9,23.7-21.8,25.6c-2.1,0.3-4,0.3-6,0.3c-5.1,0-10,0-15.6,0c-1.1-8.7-0.5-17-0.5-25.3
		C484.3,165.9,483.9,157.8,484.8,149.5z M495.6,190.9c7.5,1,14.5,0.6,19.4-6.4c4-5.7,3.8-15.6-0.5-21.5c-4.9-6.7-11.9-6.2-18.9-5.4
		C494.5,164.6,494.5,184,495.6,190.9z"/>
	<path class="st5" d="M554.4,149.2c7.3-0.5,14.3-0.6,21.3,0c4.1,0.3,7.8,1.9,10.6,5.1c5.4,6,4.9,15.7-1.4,21.1
		c-1.6,1.3-3.3,2.2-5.4,3.7c0.6,1.4,1.1,2.9,1.7,4c2.4,4,4.8,7.8,7.2,11.6c0.6,1,1.1,2.2,1.7,3.5c-4,1-7.5,0.5-11.1,0.5
		c-4.9-6-7.8-13.5-13.2-20c-1,1.4-1.7,2.1-1.7,2.9c-0.2,3-0.2,6-0.2,9.1c0,2.5-0.2,4.9-0.2,7.5c-3.3,1.1-6.4,0.8-9.5,0.3
		c-1.6-5.6-0.5-11.1-0.8-16.5c-0.2-5.2-0.2-10.6,0-15.9C553.8,160.5,552.8,154.9,554.4,149.2z M564.1,171c2.1,0.2,3.8,0.5,5.4,0.5
		c1.6,0,3,0,4.6-0.2c3.5-0.6,5.7-3.5,5.9-7c0.2-3-1.7-6-4.9-7c-3.7-1.1-7.3-1.4-11.1,0.3C563.6,162.1,563.5,166.4,564.1,171z"/>
	<path class="st6" d="M1490.8,185.5c3.3-1.3,6.4-0.6,9.7-0.6c0.8,1.1,1.6,2.4,2.4,3.5c2.2,2.9,5.4,3.7,8.7,2.5
		c2.4-0.8,3.8-2.5,4.1-4.9c0.3-2.2-0.5-4.1-2.4-5.2s-4.1-1.9-6.2-2.7c-2.7-1-5.4-1.3-7.9-2.4c-9.5-3.8-11.8-15.3-4.3-22.4
		c1.3-1.3,2.7-2.4,4.3-3c6.7-2.7,13.3-2.7,19.9,0.6c4.4,2.4,5.9,4.9,6.2,11.4c-3,1.3-6.4,0.8-9.7,0.5c-0.8-1.1-1.4-2.1-2.1-3.2
		c-1.3-1.9-3.2-2.5-5.2-2.7c-3.2-0.2-5.7,1.6-6.4,4.1c-0.6,2.7,0.6,5.7,3.3,7c1.7,0.8,3.8,1.3,5.7,1.9c2.9,1,5.9,1.6,8.6,2.9
		c6.2,2.9,8.9,9.2,6.7,15.9c-1.6,4.6-4.8,7.8-9.2,9.5c-6.5,2.4-13,2.1-19.2-1.1C1493.2,194.8,1490.8,190.9,1490.8,185.5z"/>
	<path class="st6" d="M1258.4,190.1c-1.3,3.2-2.4,5.7-3.3,8.4c-3.5,0.8-6.7,0.6-10.5,0.2c2.4-8.9,5.6-17.2,8.6-25.4
		c2.9-8.1,5.4-16.2,8.7-24.2c4.1-0.5,7.9-0.6,12.1,0.3c5.9,16,11.6,32.3,17.2,48.6c-3.7,1.3-6.8,1-10.3,0.5
		c-0.6-1.4-1.3-2.9-1.9-4.1c-0.6-1.4-1.3-2.7-1.9-4.3C1270.8,190.1,1264.9,190.1,1258.4,190.1z M1267.4,163.5
		c-2.1,6-5.4,11.4-5.7,18c4.4,0.8,8.3,1,12.6-0.2C1272.7,174.8,1270.8,169.1,1267.4,163.5z"/>
	<path class="st6" d="M798.5,185.6c3.3-1.7,6.4-0.5,9.5-1.1c0.8,1.1,1.4,2.2,2.1,3.2c2.2,3.2,4.9,4.3,8.4,3.3
		c2.5-0.6,4.6-2.7,4.9-5.2s-0.8-4.6-3-5.7s-4.8-1.9-7.2-2.7c-2.4-0.8-4.9-1.3-7.3-2.2c-9.2-4.3-10.6-15.7-3-22.7
		c6-5.6,19.5-5.1,24.9-1c3.5,2.7,4.6,4.9,4.9,10.6c-3.2,1.4-6.4,0.5-9.5,0.6c-1-1.3-1.4-2.4-2.4-3.3c-2.2-2.5-5.1-3.3-8.1-2.2
		c-2.1,0.8-3.5,2.1-3.8,4.3c-0.3,2.2,0.3,4.1,2.1,5.4c1.9,1.1,4.1,1.9,6.2,2.7c3,1.1,6.4,1.7,9.4,3.2c8.1,3.7,10.2,13.2,4.4,20.3
		c-2.1,2.7-4.9,4.4-8.1,5.4c-5.7,1.7-11.6,1.4-17-1.3C801.2,195.2,798.3,191.3,798.5,185.6z"/>
	<path class="st7" d="M872.1,189.7c-1.4,3.5-2.5,6-3.5,8.6c-3.3,1-6.5,0.6-10.3,0.2c2.1-8.9,5.7-17,8.4-25.1
		c2.7-8.1,5.2-16.4,8.9-24.2c3.8,0,7.3,0,10.8,0c2.9,4.4,15.7,39.9,17.8,49.3c-3.2,1.1-6.4,0.8-9.9,0.2c-1.3-2.7-2.4-5.4-3.8-8.4
		c-1.3-0.2-2.5-0.5-3.7-0.5C881.9,189.7,877.1,189.7,872.1,189.7z M874.6,181.5c4.6,0.8,8.7,1,13.5-0.2c-2.2-6.4-4.1-12.2-6.5-19.2
		C878.1,168.9,876.4,175,874.6,181.5z"/>
	<path class="st7" d="M628.1,190.5c-1.1,2.5-2.4,5.4-3.7,8.1c-3.2,0-6.2,0-8.9,0c-0.5-0.3-0.8-0.5-0.8-0.6c-0.2-0.2-0.2-0.5,0-0.8
		c5.2-15.1,10.5-30.2,15.7-45.1c0.3-1,1-1.7,1.4-2.9c3.8-0.8,7.5-0.3,11.6-0.3c6.4,16.2,11.6,32.6,17.5,48.9
		c-3.5,1.7-6.8,0.6-10.2,1.1c-1.4-3-2.5-5.7-3.8-8.4C641.3,189.4,634.7,189.4,628.1,190.5z M644.8,181.6c-2.2-6.4-4-11.6-5.7-16.8
		c-0.2-0.6-1-1.1-1.6-2.1c-2.4,6.2-5.1,12.1-6,18.9C635.8,181.6,639.7,181.6,644.8,181.6z"/>
	<path class="st4" d="M1363.1,149.7c3.2-1.4,6.2-1,10-0.2c2.1,5.9,4.1,11.8,6.2,17.8c2.1,5.9,4.1,11.9,6.5,18.9
		c1.4-2.1,2.4-3,2.7-4.3c3-8.4,5.7-16.8,8.7-25.1c0.8-2.4,1.7-4.8,2.5-7c3.5-1.4,6.7-0.8,10.3-0.6c-0.6,6.2-3.5,11.3-5.2,16.7
		c-1.9,5.6-4,11-6,16.4c-2.1,5.4-4.1,10.8-6,16.4c-4.4,0.8-8.3,1-12.2,0C1376.3,189.7,1364,155.4,1363.1,149.7z"/>
	<path class="st8" d="M1463.8,149.5c0,2.4,0,4.3,0,6.4c-5.7,2.5-11.8-0.2-17.2,1.7c-1.6,5.4-1.6,5.4-0.3,11.4
		c4.6,1.7,9.5,0,14.1,1.1c1.7,1.9,1.3,4.1,0.6,6.5c-0.6,0.3-1.4,0.8-2.1,0.8c-4.3,0.2-8.6,0.3-12.9,0.5c-1.3,4.4-1,8.4-0.3,12.6
		c5.7,2.1,11.6,0,17.2,1.3c1.3,2.4,1.3,4.4,0.2,6.5c-5.9,1-19.9,1-27.6,0.2c-1.7-5.2-0.5-11-0.8-16.4c-0.2-5.2-0.2-10.6,0-15.9
		c0.2-5.6-0.5-11.1,0.5-16.4C1441.6,148.6,1455.6,148.6,1463.8,149.5z"/>
	<path class="st9" d="M1022.1,198.5c-6,1-20.5,1-27.3,0.2c-0.2-0.2-0.5-0.3-0.6-0.5c-0.2-0.2-0.3-0.5-0.3-0.6
		c-0.2-15.3-0.2-30.4-0.2-45.6c0-0.6,0.3-1.4,0.5-2.1c5.2-1.3,18.1-1.6,27.5-0.5c1.1,2.2,1.1,4.4,0,7c-5.6,1.4-11.1-0.2-16.8,1.1
		c-1.6,3.7-1,7.3-0.6,11.3c4.9,2.1,10,0.2,15.1,1.3c1.7,1.9,1.3,4.1,0.6,6.4c-0.6,0.3-1.3,0.8-1.9,0.8c-4.3,0-8.6,0-13,0
		c-1.7,4.6-1,8.7-0.6,13c5.9,1.4,11.8-0.2,17.6,1.1c0.2,1.4,0.3,2.7,0.3,3.8C1022.5,196.6,1022.2,197.5,1022.1,198.5z"/>
	<path class="st10" d="M1152.4,197.9c-0.8-11.4-0.5-42.4,0.3-48c5.1-1.3,18.8-1.4,27-0.3c0.3,0.3,0.8,0.8,0.8,1.1
		c0.2,1.7,0,3.5,0,5.2c-0.8,0.3-1.4,1-2.1,1c-3,0.2-6,0.2-9.1,0.2c-1.9,0-4,0.3-6.2,0.5c-1.4,4-1.1,7.6-0.3,11.4
		c4.9,1.7,10.2,0,14.9,1.3c1.4,2.2,1.3,4.4,0.2,7c-4.9,0.2-9.9,0.5-15.1,0.6c-0.2,1.9-0.5,3.3-0.5,4.9c0,2.5,0.2,4.9,0.2,7.6
		c6,1.9,11.9,0,18,1.4c0.2,2.1,0.2,4.1,0.3,5.7c-0.8,0.5-1.1,1.1-1.6,1.1c-8.4,0.2-16.7,0.2-25.1,0.2
		C1153.5,198.8,1152.8,198.2,1152.4,197.9z"/>
	<path class="st11" d="M1126.9,191.8c0,2.5,0,4.4,0,6.4c-6.5,1.1-18.9,1.1-25.1,0.2c-1.1-5.7-1.3-41.8,0-48.6c2.9-1,5.7-0.8,8.9,0
		c1.6,4.4,0.6,9.1,0.8,13.7c0.2,4.6,0,9.1,0,13.7c0,4.4,0.2,9.1,0.2,13.5C1116.8,192.1,1121.9,190.5,1126.9,191.8z"/>
	<path class="st12" d="M1050.2,149.9c3.8-1.1,6.5-1,9.7-0.3c0.3,1.6,0.6,3.3,0.8,4.9c0,9.4,0,18.8,0,28.1c0,2.5,0.2,4.9,0.3,7.6
		c5.1,2.1,10.3,0,15.3,1.6c0.2,1,0.5,1.9,0.5,2.9c0,1.3-0.3,2.4-0.5,3.7c-6.2,1.1-18.6,1.1-25.7,0c-1-5.1-0.3-10.3-0.5-15.6
		c-0.2-5.6,0-11.1,0-16.7C1050.2,160.8,1050.2,155.4,1050.2,149.9z"/>
	<path class="st12" d="M1326.4,191.2c5.4,0,10,0,14.3,0c2.1,2.7,1.7,4.9,0.8,7.3c-6.8,1.1-19.2,1-25.1-0.2
		c-1.1-5.6-1.3-41.3-0.2-48.8c2.7-1.3,5.7-0.8,9.1-0.2c0.2,1.6,0.6,3,0.6,4.4c0,9.7,0,19.2,0,28.9
		C1326.1,185.3,1326.2,187.7,1326.4,191.2z"/>
	<path class="st13" d="M760.4,149.4c3.7,0,6.4,0,9.5,0c0.3,1.1,1,2.2,1,3.3c0,14.5,0,28.9,0,43.4c0,0.8-0.3,1.4-0.5,2.2
		c-3,1.3-5.9,1-8.4,0.5c-0.6-0.5-0.8-0.6-1-0.8s-0.2-0.5-0.2-0.8c-0.2-13.7-0.2-27.3-0.2-41.2C760.4,154.3,760.4,152.2,760.4,149.4z
		"/>
	<path class="st14" d="M1085.5,239.3c6.5,1.9,8.4,8.9,14.9,10.2c0.3-3,0.6-5.7,1.1-8.4c0.2-0.5,1.1-1.3,1.6-1.3s1.4,0.8,1.4,1.4
		c0.2,6.2,0.5,12.6-0.2,18.4c-1.7,1-2.9,0.2-3.7-0.6c-2.4-2.2-4.6-4.6-7-6.8c-0.8-0.8-1.9-1.3-2.9-1.7c-2.5,1.7-1.7,4-2.1,5.7
		c-0.2,1.3-0.5,2.5-1,3.5c-0.2,0.3-1.3,0.2-2.2,0.3C1085.5,253.3,1085.5,246.8,1085.5,239.3z"/>
	<path class="st15" d="M878.1,247.4c0,2.1,0.2,4.1,0,6c-0.5,4-2.7,6.5-6.7,7.2c-1.7,0.3-3.5,0.3-5.2,0.2c-3.2-0.3-5.4-2.1-5.7-5.2
		c-0.3-4.8-0.3-9.5-0.2-14.3c0-0.5,1.6-1.4,2.2-1.4c0.8,0,1.9,1.1,2.1,1.7c0.3,2.5,0.2,5.1,0.3,7.6c0,1.7,0,3.5,0.2,5.2
		c0.3,2.5,1.6,3.8,4,3.7c2.7-0.2,4.1-1.3,4.3-4.1c0.2-3.5,0-7.2,0.2-10.6c0-2.9,0.8-3.8,2.5-3.7c1.7,0.2,2.2,1,2.4,4
		C878.3,244.9,878.3,246.2,878.1,247.4C878.3,247.4,878.1,247.4,878.1,247.4z"/>
	<path class="st16" d="M924.5,251.1c3.2-1.4,5.6-1.3,8.3-0.3c1.1,2.7,1,5.4,0.2,8.3c-3.3,1.9-6.7,2.4-10.3,1.9
		c-3.3-0.3-5.9-2.2-6.5-5.4c-0.6-2.7-1.1-5.6-0.6-8.3c1.3-6.5,9.5-10.3,15.7-7.3c0.3,0.2,0.6,0.8,0.6,1.3s-0.5,1.1-0.8,1.1
		c-1.9,0.2-4,0.2-6,0.3c-3.3,0.2-4.6,1.4-4.8,4.8c-0.2,2.2,0,4.6,0.5,6.8c0.2,1.1,1.1,2.2,1.9,3.2c1.1,1.3,3.8,1.1,4.8-0.2
		c1-1.4,1-2.9-0.3-4C926.4,252.5,925.8,252,924.5,251.1z"/>
	<path class="st17" d="M1032.2,239.8c4.8-1.4,8.7-1.1,12.7,0.2c3,0.8,4.6,2.9,5.6,5.7c2.4,7.8-2.2,14.5-10.3,14.9
		c-2.5,0.2-5.1,0.5-7.8-1.1C1031.6,253.3,1031.8,246.8,1032.2,239.8z M1036.8,242.5c-0.3,4.9-1,10.2,0.3,15.3
		c6.8,0.3,8.3-0.8,8.6-6.5c0-1.3,0-2.5,0-3.8c-0.2-2.1-1-3.8-2.9-5.1C1041,241.4,1039.1,241.1,1036.8,242.5z"/>
	<path class="st18" d="M834.6,239.5c3.5,0.2,6.4,0.2,9.1,0.6c3.8,0.6,5.4,3.8,4.1,7.3c-0.6,1.6-1.6,3-2.7,4.9
		c1.7,2.5,3.5,5.1,5.6,7.9c-2.7,1.3-4.9,0.6-6.7-1.4c-1.3-1.4-2.4-3.2-4-5.6c-0.3,2.4-0.5,3.8-0.8,5.2c-0.6,2.4-2.2,2.4-4.4,1.3
		C833.9,253.5,833.9,247,834.6,239.5z M841.4,242c-0.8,0.2-1.4,0.2-1.7,0.5c-1.7,1.4-1.9,5.4-0.3,6.8c0.5,0.3,1.6,0.5,2.1,0.2
		c2.4-1.3,3.2-3.5,1.9-5.7C842.8,243,841.9,242.5,841.4,242z"/>
	<path class="st16" d="M900.7,252.5c1.9,2.5,3.7,4.9,5.4,7.5c-4,1.3-4,1.3-10.5-5.6c-1.6,1-0.8,2.7-1,4c-0.3,1.4-1.3,2.4-2.5,1.9
		c-0.8-0.2-1.6-1.3-1.7-2.1c-0.3-2.2-0.2-4.6-0.2-6.8c0-3,0-6,0.2-9.1c0-0.5,0.2-1,0.3-1.7c2.5-1.9,5.6-1.4,8.4-0.8
		c3.8,0.8,5.6,3.7,4.6,7.3C903,248.9,901.8,250.3,900.7,252.5z M895.4,241.9c-1.1,2.7-1.4,5.1-0.5,7.5c2.2,0.5,3.7-0.2,3.8-2.4
		c0.2-1.1-0.2-2.5-0.6-3.5C897.8,242.7,896.5,242.5,895.4,241.9z"/>
	<path class="st19" d="M1155.4,256.5c3.5,0.3,5.7,0.8,7.9,0.8c0.6,0,1.6-1.1,1.9-1.7c0.2-0.5-0.3-1.6-0.8-1.9
		c-1.7-1.1-3.5-1.9-5.2-2.9c-2.2-1.3-3.5-3-3.3-5.6c0.2-2.5,1.7-4.1,4-5.2c2.5-1.3,5.4-1.6,7.9,0c0.3,0.2,0.3,0.8,0.5,1.4
		c-1.3,2.4-3.7,1-5.4,1.6c-0.6,0.2-1.7,0.8-1.7,1.1c0,0.8,0.3,2.1,1,2.5c1.4,1.1,3.2,1.6,4.6,2.5c4.1,2.9,4,8.1-0.3,10.6
		c-3.3,1.9-6.7,2.2-10,0.2C1156,259.3,1155.9,258.1,1155.4,256.5z"/>
	<path class="st20" d="M806.8,257.6c-0.3,1-0.3,1.7-0.6,1.9c-0.8,0.5-1.7,1-2.7,1.1c-7.5,1.6-11.4-1-12.7-7.9
		c-1.4-7.3,2.4-12.9,9.5-13.7c1.7-0.2,3.5,0,5.2,0.3c0.5,0.2,1.3,1,1.3,1.6s-0.8,1.6-1.3,1.6c-1.7,0.2-3.5,0-5.2,0.2
		c-2.5,0.2-4,1.3-4.1,3.7c-0.2,2.5-0.2,5.1,0.2,7.6c0.3,2.9,2.4,4.3,5.4,4.3C803.3,258.1,805,257.8,806.8,257.6z"/>
	<path class="st15" d="M1062.4,260.1c0-7.2,0-13.5,0-19.9c4-1.3,7.8-1.6,12.9,0.6c-3.3,1-5.6,1.4-7.8,2.1c-0.2,0.6-0.6,1.3-0.6,1.9
		c0,0.6,0.2,1.4,0.3,1.9c1.6,2.1,4.8,0.3,6.5,3c-2.4,0.8-4.3,1.4-6.5,2.1c0,1.6,0,3,0,4.9c2.4,0.5,4.8,1.1,8.1,1.7
		C1070.7,261.7,1066.9,260.5,1062.4,260.1z"/>
	<path class="st17" d="M1213.6,239.6c2.4,6.5,4.8,13,7,19.4c-1.9,2.4-3.5,2.1-4.6,0.5c-1-1.4-1.6-3.2-2.5-5.2
		c-2.1-0.2-4.1-0.2-5.7-0.3c-2.9,2.1-2.2,6-5.6,6.5c-0.3-0.6-0.8-1.3-0.6-1.6c2.1-5.4,4.1-10.8,6.2-16.2
		C1208.9,240.1,1209.1,240.3,1213.6,239.6z M1210.9,245c-0.5,0-1.1,0-1.6,0c-0.6,1.6-1.4,3.2-1.6,4.9c-0.2,0.5,1.1,1.6,1.7,1.9
		c0.8,0.3,1.9-0.2,3.5-0.5C1212.1,249,1211.5,247.1,1210.9,245z"/>
	<path class="st19" d="M971.7,241.7c2.5,5.7,4.4,11.8,6.5,17.5c-2.1,2.1-3.7,1.7-4.9,0c-1-1.4-1.6-3.2-2.5-5.1c-1.9,0-3.8,0-6.2,0
		c-1.1,2.1-2.4,4.1-3.5,6c-1.7,0-2.4-0.8-1.9-1.9c2.2-5.7,4.6-11.3,7-16.8C967.9,241.6,969.8,241.7,971.7,241.7z M964.7,251.4
		c2.1,0.2,3.7,0.2,5.7,0.3c-0.6-2.4-1-4-1.6-5.6c-0.2-0.5-1.1-0.6-2.1-1.1C966.1,247.1,965.5,249,964.7,251.4z"/>
	<path class="st15" d="M1120.1,243.6c-2.4-1-4.1-1.7-6.2-2.5c4.8-2.1,10.2-2.2,17-0.5c-1.1,0.6-1.7,1.3-2.5,1.6c-1,0.3-1.9,0.5-3,1
		c-1,4-0.5,8.1-0.5,12.1s-0.5,5.6-2.5,5.2c-3-0.5-2.1-3-2.1-4.9C1120.1,251.4,1120.1,247.4,1120.1,243.6z"/>
	<path class="st15" d="M1188.9,243.5c-0.2,5.4-0.2,10.5-0.5,15.4c0,0.5-1.4,1.1-2.2,1.3c-0.5,0-1.4-0.6-1.6-1.3
		c-0.3-1-0.3-1.9-0.3-3c0-4,0-8.1,0-12.4c-2.1-1-4-1.7-7.2-3.2c6.8-1.6,12.1-1.4,19.1-0.2C1192.9,241.7,1191.1,242.5,1188.9,243.5z"
		/>
	<path class="st16" d="M818.2,240c1.4,0,2.5,0,4.3,0c0.2,6.4,0.2,12.4,0,18.3c0,1.4-1,2.4-2.4,2.2c-0.8-0.2-2.1-1-2.1-1.6
		C817.6,252.5,817.1,246.3,818.2,240z"/>
	<path class="st4" d="M695.4,193.2c0.2,3-2.7,5.9-5.7,5.9c-3.2,0-5.7-2.5-5.9-5.7c-0.2-3,2.7-5.9,5.7-5.9
		C692.5,187.4,695.4,190.1,695.4,193.2z"/>
	<path class="st16" d="M949.3,250.3c0,2.7,0.2,5.6-0.2,8.3c0,0.6-1.3,1.7-2.1,1.7c-0.6,0-2.1-1-2.1-1.6c-0.2-5.7-0.2-11.6,0-17.3
		c0-0.6,1.3-1.6,2.1-1.6c0.6,0,2.1,1,2.1,1.6C949.3,244.3,949.3,247.3,949.3,250.3z"/>
	<path class="st0" d="M971.7,241.7c-1.9,0-3.8-0.2-5.6-0.2c0.2-0.8,0.5-1.6,0.6-2.5c0.3-0.3,0.5-0.8,0.8-1.1c-0.6,0-1.1,0.2-1.7,0.2
		c-0.6-0.6-1.4-1.1-2.1-1.7c0.6-0.8,1.1-2.1,1.7-2.2c2.7-0.6,5.4,0,8.3,0.6C972.8,237.4,972.2,239.5,971.7,241.7z"/>
	<path class="st11" d="M1141.4,250c0-2.7,0-5.6,0-8.3c0-0.5,0.8-1.3,1.4-1.3c0.5,0,1.7,0.6,1.7,1c0.2,5.7,0.2,11.4,0,17.2
		c0,0.3-1.1,1-1.7,1c-0.5,0-1.4-0.8-1.4-1.3C1141.2,255.5,1141.4,252.7,1141.4,250z"/>
	<path class="st21" d="M940.4,191c-0.5-4.9-0.6-8.9,0.2-13c3.8-0.8,7.3-0.6,10.6-0.3c3.7,0.3,5.9,3,5.9,6.5s-1.9,6.2-5.7,6.7
		C947.9,191.3,944.4,191,940.4,191z"/>
	<path class="st22" d="M495.6,190.9c-1.1-6.8-1.1-26.2,0-33.1c7-1,14-1.4,18.9,5.4c4.3,5.7,4.4,15.7,0.5,21.5
		C510.1,191.5,503.1,191.8,495.6,190.9z"/>
	<path class="st23" d="M874.6,181.5c1.6-6.5,3.5-12.6,7-19.2c2.4,7,4.4,12.9,6.5,19.2C883.3,182.4,879.4,182.3,874.6,181.5z"/>
	<path class="st24" d="M644.8,181.6c-5.1,0-9.1,0-13.5,0c1-6.7,3.7-12.6,6-18.9c0.8,1,1.4,1.4,1.6,2.1
		C640.9,170,642.6,175.3,644.8,181.6z"/>
	<path class="st23" d="M1036.8,242.5c2.2-1.4,4.1-1.1,5.9,0c1.9,1.1,2.7,2.9,2.9,5.1c0.2,1.3,0.2,2.5,0,3.8
		c-0.3,5.7-1.7,6.8-8.6,6.5C1035.9,252.7,1036.4,247.6,1036.8,242.5z"/>
	<path class="st25" d="M841.4,242c0.6,0.5,1.4,1,1.9,1.7c1.3,2.2,0.5,4.4-1.9,5.7c-0.5,0.3-1.6,0.3-2.1-0.2
		c-1.6-1.6-1.4-5.4,0.3-6.8C840,242.2,840.4,242.2,841.4,242z"/>
	<path class="st26" d="M965.7,238.1c0.6,0,1.1-0.2,1.7-0.2c-0.3,0.3-0.5,0.8-0.8,1.1C966.3,238.7,966,238.4,965.7,238.1z"/>
</g>
</svg>
