<svg id="Camada_1" data-name="Camada 1" xmlns="http://www.w3.org/2000/svg" viewBox="0 0 670.29 549.52"><path d="M306.14,686.55S322.53,544.2,497.83,502.34c58-11.33,87.62-12.52,131.51-22,47.39-10.24,80.79-17.45,103.51-27.84C774,433.67,795.58,426.62,848,377.29c-11.5,31.95-30.67,105.53-129.71,141.85C626,553,499.75,557.5,446.71,577.61,388.57,599.65,325.31,644.38,306.14,686.55Z" transform="translate(-260.13 -137.03)" style="fill:#998b69"/><path d="M752.78,292.94s-23.64,10.87-67.09,10.87-111.82-13.42-208.31-63.9c-58.78-30.67-67.09-34.51-88.18-34.51S326,222.66,326,283.36s78.59,124,76,159.1c24.92-24.28,101.5-57.18,256.23-78.59C819.88,341.51,897.83,272.5,930.42,205.4,917,285.28,876,386.92,667.33,426.88c-184.83,35.39-237.23,43.7-303.69,105,1.92-44.09-3.19-79.23-37.69-128.43s-65.82-93.93-65.82-150.16S304.86,137,391.76,137s134.82,86.26,253,137.38C683.13,285.28,717,294.86,752.78,292.94Z" transform="translate(-260.13 -137.03)" style="fill:#ded4c5"/><path d="M844.16,284s-17.61,17.28-66.88,37.48c-.21-12.83,2.41-28.53,2.16-53.46-.21-19.76.18-74.12-64-84.66-46.92-7.71-80.4-2-100,4.36,27.69-19.16,98.83-64.32,164.43-43S850.55,258,844.16,284Z" transform="translate(-260.13 -137.03)" style="fill:#998b69"/></svg>